<?xml version="1.0" standalone="no"?><!DOCTYPE svg PUBLIC "-//W3C//DTD SVG 1.1//EN" "http://www.w3.org/Graphics/SVG/1.1/DTD/svg11.dtd"><svg t="1755373547768" class="icon" viewBox="0 0 1044 1024" version="1.1" xmlns="http://www.w3.org/2000/svg" p-id="7463" xmlns:xlink="http://www.w3.org/1999/xlink" width="203.90625" height="200"><path d="M801.661729 16.608211c-48.653754 0-90.942411 20.909737-112.533084 51.672296C667.737269 46.963868 634.201139 33.216422 596.475588 33.216422c-59.926577 0-109.294484 34.653032-116.149522 79.312511a101.829093 101.829093 0 0 0-18.846167-1.806143c-40.457602 0-73.769521 23.34284-78.544382 53.457678C264.498214 204.002806 288.941348 303.037567 288.941348 303.037567l56.642303 1.992985c0-43.173044 28.462321-86.283807 79.839822-79.237773 10.820249 4.26831 23.060501 6.722173 36.056426 6.722173 31.186068 0 58.078913-13.89692 71.000101-34.04268 18.393594 9.259078 40.370409 14.66505 63.995588 14.66505 42.139183 0 79.06754-17.139674 99.661722-42.84088 23.01898 25.863136 61.678743 42.845032 105.524419 42.845032 70.580744 0 127.791878-43.995151 127.791879-98.266632S872.242473 16.608211 801.661729 16.608211z" fill="#9797BD" p-id="7464"></path><path d="M345.583651 321.638763l-0.585439-0.008304-56.642303-1.992985a16.612363 16.612363 0 0 1-15.541134-12.618088c-9.44592-38.277774-0.847019-118.528649 96.149085-155.469462 10.990484-33.361744 48.757555-57.431193 92.511887-57.431193 2.105091 0 4.22679 0.062281 6.365096 0.18269C483.709989 49.056503 535.884683 16.608211 596.475588 16.608211c34.067592 0 66.167112 10.101944 90.647615 28.142613C714.173827 16.803357 756.408507 0 801.661729 0c79.623915 0 144.400089 51.531126 144.40009 114.874842s-64.780326 114.874842-144.40009 114.874843c-39.996724 0-77.967246-13.182767-105.009565-35.886192-25.111615 22.711728-61.280146 35.88204-100.176576 35.88204-20.581725 0-40.719181-3.732695-58.98406-10.878378C519.600332 237.796363 491.731755 249.123163 461.479899 249.123163c-13.963353 0-27.445068-2.38743-40.10883-7.10001a62.98664 62.98664 0 0 0-6.813518-0.381989c-34.378996 0-52.365689 31.887765-52.365689 63.389388a16.608211 16.608211 0 0 1-16.608211 16.608211z m-42.189007-34.71116l26.905301 0.946668c6.360945-41.072105 35.43777-79.449529 84.253454-79.449529 4.280766 0 8.69855 0.307252 13.124639 0.913452 1.316201 0.178538 2.603337 0.519007 3.840648 1.004796 9.354575 3.691175 19.435759 5.563751 29.961213 5.563751 24.351789 0 46.731353-10.363524 57.02014-26.402903a16.608211 16.608211 0 0 1 21.449504-5.866851c16.749381 8.432819 36.297245 12.892124 56.526045 12.892124 35.379641 0 68.600215-14.029786 86.703165-36.616953a16.595755 16.595755 0 0 1 12.530895-6.215623 16.50441 16.50441 0 0 1 12.838147 5.559599c20.77272 23.34284 55.587682 37.277129 93.118086 37.277129 61.30921 0 111.183668-36.633561 111.183668-81.658421S862.97094 33.216422 801.661729 33.216422c-41.719826 0-79.628067 17.089849-98.935112 44.605502a16.624819 16.624819 0 0 1-12.140602 7.004513 16.583299 16.583299 0 0 1-13.178615-4.779013C658.415911 61.122368 628.164055 49.824633 596.475588 49.824633c-51.149137 0-94.027386 28.038812-99.736458 65.224596a16.620667 16.620667 0 0 1-19.485583 13.801423 85.685912 85.685912 0 0 0-15.7778-1.519651c-31.339694 0-58.635288 17.326516-62.139621 39.448652a16.608211 16.608211 0 0 1-11.110893 13.141247c-80.259179 26.988343-86.395913 82.397486-84.830589 107.006703z" fill="#6E6E96" p-id="7465"></path><path d="M166.69246 660.325855L16.608211 861.725324h150.084249l59.536284-118.179876z" fill="#F0DA97" p-id="7466"></path><path d="M166.69246 878.333535H16.608211a16.608211 16.608211 0 0 1-13.315633-26.535769l150.084249-201.399469a16.612363 16.612363 0 0 1 13.319785-6.680653h0.16193a16.608211 16.608211 0 0 1 13.344698 6.946384l59.536284 83.219593a16.608211 16.608211 0 0 1 1.324504 17.135521L181.527745 869.199019a16.620667 16.620667 0 0 1-14.835285 9.134516z m-116.996541-33.216422h106.765883l50.414224-100.076926-40.457601-56.55511-116.722506 156.632036z" fill="#6E6E96" p-id="7467"></path><path d="M293.508606 556.620034c0 60.536929-50.659195 109.61004-113.15174 109.61004-62.488393 0-110.153958-49.073111-110.153959-109.61004 0-60.545233 47.665565-109.61004 110.153959-109.610039 62.492545-0.008304 113.15174 49.068959 113.15174 109.610039z" fill="#9797BD" p-id="7468"></path><path d="M180.356866 682.838285c-71.083142 0-126.762169-55.44236-126.76217-126.218251s55.679027-126.21825 126.76217-126.21825h0.008304c34.557535 0 67.07226 13.062358 91.556914 36.778883 24.629977 23.861847 38.194733 55.620898 38.194733 89.439367 0 69.596708-58.211779 126.21825-129.759951 126.218251z m0.008304-219.224231h-0.004152c-52.457034 0-93.545748 40.852047-93.545748 93.001828s41.088714 93.001829 93.545748 93.001829c53.233468 0 96.54353-41.719826 96.543529-93.001829 0-24.742082-9.973231-48.035098-28.088636-65.581672-18.260728-17.67944-42.570996-27.420156-68.450741-27.420156z" fill="#6E6E96" p-id="7469"></path><path d="M194.386652 611.983505c-59.594413 0-105.046934-41.267252-105.046934-92.179722 0-10.160073 1.835207-19.925701 5.210826-29.068521-17.837218 19.522952-28.49969 45.568779-28.499689 74.201334 0 60.536929 47.665565 109.605887 110.153958 109.605888 62.492545 0 113.15174-49.068959 113.15174-109.605888 0-0.431813-0.029064-0.851171-0.033216-1.282984-18.252424 28.777877-53.922709 48.329894-94.936685 48.329893z" fill="#6E6E96" opacity=".25" p-id="7470"></path><path d="M233.092087 300.504815l20.548509 130.714923h114.18145l22.83629-130.714923z" fill="#9797BD" p-id="7471"></path><path d="M367.822046 447.827949h-114.18145a16.612363 16.612363 0 0 1-16.408912-14.029786l-20.548509-130.714923a16.608211 16.608211 0 0 1 16.408912-19.186636h157.566249a16.608211 16.608211 0 0 1 16.359087 19.464823l-22.83629 130.714924a16.608211 16.608211 0 0 1-16.359087 13.751598z m-99.98143-33.216421h86.022228l17.035873-97.498502H252.51539l15.325226 97.498502z" fill="#6E6E96" p-id="7472"></path><path d="M204.592397 431.219738h570.213855v347.667982H204.592397z" fill="#E37F7F" p-id="7473"></path><path d="M791.414463 795.495931H187.984187V414.611528h603.430276v380.884403z m-570.213855-33.216422h536.997434v-314.45156H221.200608v314.45156z" fill="#6E6E96" p-id="7474"></path><path d="M204.592397 431.219738h433.802316v71.693495H204.592397z" fill="#FFABAB" p-id="7475"></path><path d="M655.002923 519.521443H187.984187V414.611528h467.018736v104.909915z m-433.802315-33.216421h400.585894v-38.477073H221.200608v38.477073z" fill="#6E6E96" p-id="7476"></path><path d="M204.592397 502.917385h433.802316v102.140496H204.592397z" fill="#FF8F8F" p-id="7477"></path><path d="M655.002923 621.666092H187.984187v-135.356918h467.018736v135.356918z m-433.802315-33.216421h400.585894v-68.924075H221.200608v68.924075z" fill="#6E6E96" p-id="7478"></path><path d="M709.639785 795.703534H139.42593a16.608211 16.608211 0 0 1-16.608211-16.608211v-347.667982a16.608211 16.608211 0 0 1 16.608211-16.608211h570.213855a16.608211 16.608211 0 0 1 16.608211 16.608211v347.667982a16.608211 16.608211 0 0 1-16.608211 16.608211z m-553.605644-33.216422h536.997433v-314.45156H156.034141v314.45156z" fill="#6E6E96" p-id="7479"></path><path d="M973.137354 720.555532h-340.663469l-23.749741-325.936138 195.902151-96.767741 199.929642 96.767741z" fill="#FF8F8F" p-id="7480"></path><path d="M988.221762 737.163743H617.036553l-25.684598-352.484363 213.203755-105.316817 217.646451 105.341729-33.980399 352.459451z m-340.306393-33.216422h310.137578l28.860918-299.412825-182.216985-88.193752-178.600548 88.222816 21.819037 299.383761z" fill="#6E6E96" p-id="7481"></path><path d="M140.206516 431.423189h67.159453v250.032462H140.206516z" fill="#9797BD" p-id="7482"></path><path d="M207.365969 698.063862H140.206516a16.608211 16.608211 0 0 1-16.608211-16.608211v-250.032462a16.608211 16.608211 0 0 1 16.608211-16.608211h67.159453a16.608211 16.608211 0 0 1 16.60821 16.608211v250.032462a16.608211 16.608211 0 0 1-16.60821 16.608211z m-50.551242-33.216422h33.943031v-216.81604h-33.943031v216.81604z" fill="#6E6E96" p-id="7483"></path><path d="M140.206516 671.768912h832.93499v188.793837H140.206516z" fill="#8686A8" p-id="7484"></path><path d="M140.206516 681.455651h821.56667v33.6773H140.206516z" fill="#FFFFFF" opacity=".16" p-id="7485"></path><path d="M140.206516 789.8699h825.718723v72.660922H140.206516z" fill="#6E6E96" opacity=".48" p-id="7486"></path><path d="M973.141506 877.17096H140.206516a16.608211 16.608211 0 0 1-16.608211-16.608211v-188.793837a16.608211 16.608211 0 0 1 16.608211-16.608211h832.93499a16.608211 16.608211 0 0 1 16.608211 16.608211v188.793837a16.608211 16.608211 0 0 1-16.608211 16.608211z m-816.326779-33.216422h799.718568v-155.577415H156.814727v155.577415z" fill="#6E6E96" p-id="7487"></path><path d="M208.246204 846.732262m-81.085438 0a81.085437 81.085437 0 1 0 162.170875 0 81.085437 81.085437 0 1 0-162.170875 0Z" fill="#A9A9C2" p-id="7488"></path><path d="M208.246204 948.577962c-56.156513 0-101.845701-45.685036-101.845701-101.841548s45.685036-101.845701 101.845701-101.845701 101.845701 45.689188 101.845701 101.845701S264.402717 948.577962 208.246204 948.577962z m0-162.170874c-33.262094 0-60.325174 27.06308-60.325174 60.325174s27.06308 60.321022 60.325174 60.321021c33.266246 0 60.325174-27.06308 60.325174-60.321021 0-33.262094-27.058928-60.325174-60.325174-60.325174z" fill="#6E6E96" p-id="7489"></path><path d="M891.225658 817.568243m-110.249455 0a110.249456 110.249456 0 1 0 220.498911 0 110.249456 110.249456 0 1 0-220.498911 0Z" fill="#A9A9C2" p-id="7490"></path><path d="M891.225658 948.577962c-72.237413 0-131.009719-58.768154-131.009719-131.009719s58.768154-131.013871 131.009719-131.013871 131.013871 58.772306 131.013872 131.013871-58.772306 131.009719-131.013872 131.009719z m0-220.498911c-49.342994 0-89.489192 40.146198-89.489192 89.493344 0 49.342994 40.146198 89.489192 89.489192 89.489192 49.347146 0 89.493344-40.146198 89.493345-89.489192 0-49.351299-40.146198-89.493344-89.493345-89.493344z" fill="#6E6E96" p-id="7491"></path><path d="M475.356059 846.732262m-81.085438 0a81.085437 81.085437 0 1 0 162.170875 0 81.085437 81.085437 0 1 0-162.170875 0Z" fill="#A9A9C2" p-id="7492"></path><path d="M475.356059 948.577962c-56.156513 0-101.845701-45.685036-101.845701-101.841548s45.685036-101.845701 101.845701-101.845701 101.849853 45.689188 101.849853 101.845701-45.689188 101.841549-101.849853 101.841548z m0-162.170874c-33.262094 0-60.325174 27.06308-60.325174 60.325174s27.06308 60.321022 60.325174 60.321021c33.266246 0 60.329326-27.06308 60.329326-60.321021 0-33.262094-27.06308-60.325174-60.329326-60.325174z" fill="#6E6E96" p-id="7493"></path><path d="M478.627876 867.496677h-270.381672a16.608211 16.608211 0 0 1 0-33.216422h270.381672a16.608211 16.608211 0 0 1 0 33.216422z" fill="#6E6E96" p-id="7494"></path><path d="M894.036598 820.370879m-29.890627 0a29.890627 29.890627 0 1 0 59.781255 0 29.890627 29.890627 0 1 0-59.781255 0Z" fill="#6E6E96" p-id="7495"></path><path d="M13.597973 959.643183h1000.644703v33.216422h-1000.644703z" fill="#6E6E96" p-id="7496"></path><path d="M63.422605 976.251394h33.216422v47.748606h-33.216422zM159.609058 976.251394h33.216422v47.748606h-33.216422zM255.799663 976.251394h33.216422v47.748606h-33.216422zM351.990269 976.251394h33.216421v47.748606h-33.216421zM448.176722 976.251394h33.216421v47.748606h-33.216421zM544.367327 976.251394h33.216422v47.748606h-33.216422zM640.55378 976.251394h33.216422v47.748606h-33.216422zM736.748537 976.251394h33.216422v47.748606h-33.216422zM832.93499 976.251394h33.216422v47.748606h-33.216422zM929.121443 976.251394h33.216422v47.748606h-33.216422z" fill="#6E6E96" p-id="7497"></path><path d="M915.008616 449.89152l-10.309547 142.755876h-208.412285l-10.39674-138.574759c-0.004152 0 103.572955-114.513614 229.118572-4.181117z" fill="#88D8EB" p-id="7498"></path><path d="M904.699069 609.255607h-208.412285a16.608211 16.608211 0 0 1-16.562539-15.366747l-10.39674-138.57476a16.628971 16.628971 0 0 1 4.243398-12.381421c2.130003-2.354214 52.996801-57.622188 128.759307-57.622187 42.69971 0 84.299126 17.534119 123.643978 52.108261a16.616515 16.616515 0 0 1 5.601119 13.668558l-10.309547 142.755876a16.612363 16.612363 0 0 1-16.566691 15.41242z m-193.00817-33.216422h177.55423l8.590597-118.948006c-31.165308-25.601557-63.260675-38.568418-95.509668-38.568418-49.326386 0-86.520474 30.044253-99.304645 41.931581l8.669486 115.584843z" fill="#6E6E96" p-id="7499"></path><path d="M410.073334 317.113026H222.188797a16.608211 16.608211 0 0 1 0-33.216422h187.884537a16.608211 16.608211 0 0 1 0 33.216422zM207.361817 486.309174h411.86702v33.216422H207.361817zM207.361817 586.734873h411.86702v33.216421H207.361817z" fill="#6E6E96" p-id="7500"></path><path d="M804.626295 335.220128c59.079558 0 107.417756 20.888977 140.812716 53.266684h82.704738c-39.40298-101.530145-179.825403-117.623501-224.219151-117.623501-179.754818 0-222.819909 117.619349-222.819909 117.623501h86.860943c33.39496-32.373555 77.585257-53.266684 136.660663-53.266684z" fill="#FFE8A1" p-id="7501"></path><path d="M1028.22679 405.095023h-82.787779a16.616515 16.616515 0 0 1-11.559315-4.683516c-32.315426-31.33139-78.216369-48.583169-129.253401-48.583168-50.455745 0-91.378376 15.894058-125.101348 48.583168a16.616515 16.616515 0 0 1-11.559315 4.683516h-86.860943a16.608211 16.608211 0 0 1-16.608211-16.608211c0-13.06651 55.288734-134.231712 239.42812-134.231712 10.085336 0 63.235763 1.046317 119.699528 21.752604 59.349441 21.76506 100.591781 58.01248 119.379819 104.889156 1.170879 2.275325 1.826903 4.85375 1.826903 7.589952a16.599907 16.599907 0 0 1-16.604058 16.608211z m-76.23584-33.216422h49.098023c-54.06803-83.364914-195.619811-84.40708-197.164375-84.407079-118.694731 0-173.028493 53.030017-194.781097 84.407079h52.24528c38.834149-35.354729 86.985504-53.266684 143.237514-53.266684 57.173766 0 109.20729 18.862775 147.364655 53.266684z" fill="#6E6E96" p-id="7502"></path><path d="M758.314299 536.594684a10.380132 10.380132 0 0 1-8.349778-16.529322l32.842737-44.634566a10.380132 10.380132 0 1 1 16.720316 12.302532l-32.842737 44.634567a10.380132 10.380132 0 0 1-8.370538 4.226789z" fill="#6E6E96" opacity=".29" p-id="7503"></path><path d="M807.196416 535.556671a10.380132 10.380132 0 0 1-8.349778-16.529322l32.082911-43.596553a10.380132 10.380132 0 1 1 16.720316 12.302532l-32.082911 43.596553a10.363524 10.363524 0 0 1-8.370538 4.22679z" fill="#6E6E96" opacity=".29" p-id="7504"></path><path d="M912.064811 486.649642l3.109887-43.019418c-125.541466-110.332497-229.126877 4.181117-229.126876 4.181117l3.188776 42.425675c18.090494-17.683592 111.499224-98.428562 222.828213-3.587374z" fill="#6E6E96" opacity=".25" p-id="7505"></path><path d="M803.995183 328.992049c106.608105 0 194.004663 59.835232 202.682453 135.979726 0.46503-4.110532 0.76813-8.258433 0.76813-12.456158 0-81.978129-91.087732-148.435884-203.450583-148.435885s-203.450583 66.457756-203.450583 148.435885c0 4.197725 0.298948 8.345626 0.772282 12.456158 8.673638-76.144495 96.070196-135.979726 202.678301-135.979726z" fill="#6E6E96" opacity=".17" p-id="7506"></path><path d="M233.092087 308.80892h150.922964v38.032803H233.092087z" fill="#6E6E96" opacity=".25" p-id="7507"></path></svg>